# xmcd
#
# Track frame offsets:
#	150
#	15695
#	44630
#	60955
#	78235
#	104025
#	117230
#	133667
#	150810
#	178967
#	202030
#	217685
#	234692
#	255800
#	272215
#
# Disc length: 3785 seconds
#
# Revision: 5
# Processed by: cddbd v1.5.2PL0 Copyright (c) Steve Scherf et al.
# Submitted via: audiograbber 1.83.01
#
DISCID=c90ec70f
DTITLE=Bobby Womack - The Soul Of Bobby Womack - Stop On By
DYEAR=1996
DGENRE=Soul
TTITLE0=Daylight
TTITLE1=I Can Understand It
TTITLE2=You're Welcome, Stop On By
TTITLE3=Harry Hippie
TTITLE4=Jealous Love
TTITLE5=Nobody Wants You When You're Down And Out
TTITLE6=Accross 110th Street  (Demo Version Previously Unreleased)
TTITLE7=Accross 110th Street
TTITLE8=Fact Of Life - He'll Be There When The Sun Goes Down
TTITLE9=That's The Way I Feel About Cha
TTITLE10=Woman's Gotta Have It
TTITLE11=I'm Through Trying To Prove My Love To You
TTITLE12=Communication
TTITLE13=(If You Want My Love) Put Something Down On It
TTITLE14=Looking For A Love
EXTD=
EXTT0=
EXTT1=
EXTT2=
EXTT3=
EXTT4=
EXTT5=
EXTT6=
EXTT7=
EXTT8=
EXTT9=
EXTT10=
EXTT11=
EXTT12=
EXTT13=
EXTT14=
PLAYORDER=
